<svg width="336" height="77" viewBox="0 0 336 77" fill="none" xmlns="http://www.w3.org/2000/svg">
<path d="M53.9666 35.339L57.6808 33.2586L58.9699 35.3538C58.5059 35.5143 57.9926 35.747 57.4298 36.0519C56.8671 36.3568 56.255 36.7338 55.5935 37.1831C57.2075 39.8063 57.5411 43.1687 56.5944 47.2701C55.6478 51.3716 53.8415 55.2573 51.1757 58.9274C48.5661 62.6125 45.6786 65.3125 42.5133 67.0274C40.8604 67.923 39.2548 68.2477 37.6966 68.0017C36.1737 67.7367 35.0034 66.9398 34.186 65.6111C32.9703 63.6352 33.0562 60.8404 34.4438 57.2269C35.8313 53.6134 37.9067 50.127 40.6698 46.7675C43.4329 43.4081 46.2007 40.8184 48.973 38.9984C48.3069 38.6779 47.4893 38.5304 46.5202 38.5558C45.551 38.5812 43.6824 38.8213 40.9143 39.2763C38.1252 39.6972 35.9624 39.6879 34.4259 39.2485C32.8684 38.775 31.5448 37.6525 30.4548 35.8809C29.3649 34.1093 29.1025 31.5488 29.6676 28.1991C30.2328 24.8495 31.3802 21.684 33.1099 18.7028C34.8538 15.6685 36.7457 13.5987 38.7855 12.4936C39.6999 11.9981 40.6552 11.9121 41.6514 12.2355C42.6265 12.5248 43.3971 13.1294 43.963 14.0492C44.8853 15.5482 45.1166 17.944 44.657 21.2364C44.1763 24.4948 43.1598 27.3395 41.6074 29.7705L39.2723 28.7189C40.2247 27.2944 40.7707 25.5905 40.9103 23.607C41.0641 21.5704 40.8161 20.0241 40.1663 18.968C39.5165 17.9118 38.6113 17.6982 37.4507 18.327C35.7978 19.2225 34.5169 21.2565 33.6082 24.4289C32.7137 27.5481 32.801 29.9765 33.87 31.714C34.6036 32.9064 35.4965 33.6717 36.5488 34.0101C37.6011 34.3485 39.7253 34.3332 42.9216 33.9643C46.0968 33.5613 48.4706 33.4563 50.043 33.6491C51.5944 33.8079 52.9023 34.3712 53.9666 35.339ZM38.644 61.4243C39.6501 63.0596 41.5248 63.1341 44.268 61.6478C45.7803 60.8285 47.3969 59.2259 49.1177 56.84C50.8947 54.4691 52.1002 51.8173 52.7343 48.8845C53.4245 45.9668 53.1513 43.5029 51.9146 41.4929C51.7679 41.2544 51.495 40.9253 51.0961 40.5055C46.5503 43.5589 42.9786 47.2428 40.381 51.5573C37.8187 55.8527 37.2396 59.1417 38.644 61.4243Z" fill="white"/>
<path d="M81.7921 39.2024C81.8987 39.5011 81.9734 39.8424 82.0161 40.2264C82.0801 40.5891 82.1121 40.9624 82.1121 41.3464C82.1121 41.7304 82.0801 42.1144 82.0161 42.4984C81.9734 42.8611 81.9094 43.1811 81.8241 43.4584C81.4827 44.6531 80.8001 45.6558 79.7761 46.4664C78.7521 47.2558 77.5787 47.8318 76.2561 48.1945C74.9547 48.5571 73.6001 48.6851 72.1921 48.5785C70.8054 48.4718 69.5681 48.1198 68.4801 47.5225C67.7974 47.1385 67.2107 46.6691 66.7201 46.1144C66.2294 45.5598 65.8134 44.9411 65.4721 44.2585C65.3441 44.0238 65.2587 43.7571 65.2161 43.4584C65.1947 43.1384 65.2267 42.8398 65.3121 42.5624C65.3974 42.2638 65.5361 42.0078 65.7281 41.7944C65.9201 41.5598 66.1867 41.3998 66.5281 41.3144C66.7414 41.2718 66.9761 41.2504 67.2321 41.2504C67.5094 41.2504 67.7761 41.2931 68.0321 41.3784C68.2881 41.4424 68.5227 41.5598 68.7361 41.7304C68.9494 41.8798 69.1201 42.0931 69.2481 42.3705C69.4827 42.8184 69.8134 43.2344 70.2401 43.6184C70.6881 43.9811 71.1574 44.2798 71.6481 44.5145C72.3521 44.7491 73.0561 44.8451 73.7601 44.8024C74.4854 44.7598 75.1361 44.5998 75.7121 44.3224C76.3094 44.0451 76.7894 43.6718 77.1521 43.2024C77.5147 42.7118 77.6961 42.1571 77.6961 41.5384C77.6961 41.0264 77.6214 40.6104 77.4721 40.2905C77.3227 39.9491 77.1094 39.6718 76.8321 39.4584C76.5761 39.2238 76.2561 39.0318 75.8721 38.8824C75.5094 38.7331 75.1041 38.6051 74.6561 38.4984C74.1441 38.3918 73.6214 38.3171 73.0881 38.2744C72.5761 38.2318 72.0534 38.1784 71.5201 38.1144C70.9867 38.0504 70.4641 37.9651 69.9521 37.8584C69.4401 37.7518 68.9387 37.5918 68.4481 37.3784C67.4667 36.9731 66.7201 36.3544 66.2081 35.5224C65.6961 34.6904 65.3867 33.7944 65.2801 32.8344C65.1947 31.8744 65.3121 30.9251 65.6321 29.9864C65.9521 29.0264 66.4641 28.2051 67.1681 27.5224C67.8507 26.9038 68.6614 26.4664 69.6001 26.2104C70.5601 25.9331 71.6161 25.7731 72.7681 25.7304C73.4081 25.7091 74.0481 25.7304 74.6881 25.7944C75.3494 25.8584 75.9787 25.9651 76.5761 26.1144C77.1947 26.2638 77.7601 26.4558 78.2721 26.6904C78.8054 26.9251 79.2641 27.2024 79.6481 27.5224C79.9254 27.7358 80.2027 28.0238 80.4801 28.3864C80.7574 28.7278 80.9707 29.1011 81.1201 29.5064C81.2694 29.8904 81.3121 30.2638 81.2481 30.6264C81.2054 30.9891 80.9814 31.2984 80.5761 31.5544C80.2347 31.7678 79.9041 31.8638 79.5841 31.8424C79.2854 31.7998 78.9974 31.7038 78.7201 31.5544C78.4427 31.3838 78.1761 31.1918 77.9201 30.9784C77.6641 30.7651 77.4294 30.5731 77.2161 30.4024C76.6401 29.9758 75.9254 29.6878 75.0721 29.5384C74.2187 29.3891 73.4187 29.3571 72.6721 29.4424C72.2027 29.5064 71.7654 29.6131 71.3601 29.7624C70.9547 29.9118 70.6027 30.1144 70.3041 30.3704C70.0267 30.6264 69.8027 30.9464 69.6321 31.3305C69.4827 31.6931 69.4294 32.1091 69.4721 32.5784C69.4934 32.9198 69.5894 33.2078 69.7601 33.4424C69.9521 33.6771 70.1761 33.8691 70.4321 34.0184C70.7094 34.1678 71.0081 34.2851 71.3281 34.3704C71.6481 34.4558 71.9681 34.5198 72.2881 34.5624C73.2481 34.6904 74.2081 34.7864 75.1681 34.8504C76.1281 34.9144 77.0667 35.1278 77.9841 35.4904C78.9227 35.8531 79.7227 36.3438 80.3841 36.9624C81.0454 37.5811 81.5147 38.3278 81.7921 39.2024ZM99.3728 34.2424C99.5648 34.5411 99.6502 34.8611 99.6288 35.2024C99.6288 35.6931 99.5435 36.1198 99.3728 36.4824C99.3302 36.5891 99.2662 36.7278 99.1808 36.8984C99.1168 37.0691 99.0422 37.2504 98.9568 37.4424C98.8928 37.6344 98.8182 37.8158 98.7328 37.9864C98.6475 38.1571 98.5835 38.2851 98.5408 38.3705L98.4768 38.5304C98.1782 39.1918 97.8902 39.8318 97.6128 40.4504C97.3355 41.0691 97.0262 41.7304 96.6848 42.4344C96.3435 43.1171 96.0128 43.7891 95.6928 44.4504C95.3942 45.0904 95.0955 45.7198 94.7968 46.3384C94.7115 46.5091 94.6368 46.6798 94.5728 46.8505C94.5088 46.9998 94.4235 47.1598 94.3168 47.3305L92.7808 50.6265C92.5035 51.1811 92.2368 51.7251 91.9808 52.2585C91.7462 52.7918 91.4795 53.3251 91.1808 53.8585C91.1168 53.9651 91.0528 54.0611 90.9888 54.1465C90.9462 54.2531 90.9035 54.3598 90.8608 54.4665C90.7115 54.7225 90.4875 54.9678 90.1888 55.2025C89.9115 55.4585 89.6128 55.5971 89.2928 55.6185C88.7168 55.6611 88.2155 55.4905 87.7888 55.1065C87.5328 54.9571 87.3302 54.7438 87.1808 54.4665C87.0955 54.2745 87.0528 54.0291 87.0528 53.7305C87.0742 53.6025 87.0848 53.4745 87.0848 53.3465C87.1062 53.2398 87.1275 53.1331 87.1488 53.0265C87.1915 52.9198 87.2235 52.8131 87.2448 52.7065C87.2662 52.5998 87.2982 52.5145 87.3408 52.4505C87.4048 52.2798 87.4582 52.1945 87.5008 52.1945L89.8368 47.1385C89.7302 46.9038 89.6235 46.6691 89.5168 46.4344C89.4102 46.1784 89.3142 45.9544 89.2288 45.7624C88.9515 45.1011 88.6528 44.4078 88.3328 43.6824C88.0342 42.9358 87.7248 42.1998 87.4048 41.4744C87.0848 40.7278 86.7542 40.0024 86.4128 39.2984C86.0715 38.5944 85.7302 37.9224 85.3888 37.2824C85.2608 37.0691 85.1435 36.8451 85.0368 36.6104C84.9302 36.3544 84.8448 36.1091 84.7808 35.8744C84.7168 35.6184 84.6955 35.3624 84.7168 35.1064C84.7382 34.8504 84.8342 34.5944 85.0048 34.3384C85.1755 34.0184 85.3995 33.7944 85.6768 33.6664C85.9542 33.5171 86.2422 33.4531 86.5408 33.4744C86.8608 33.4744 87.1595 33.5384 87.4368 33.6664C87.7142 33.7944 87.9382 33.9651 88.1088 34.1784C88.4715 34.5624 88.7595 34.9891 88.9728 35.4584C89.1862 35.9278 89.3888 36.4078 89.5808 36.8984C89.9862 37.7518 90.4022 38.6478 90.8288 39.5864C91.2555 40.5251 91.6822 41.4424 92.1088 42.3384L93.7728 38.8184C93.9435 38.4771 94.0928 38.1464 94.2208 37.8264C94.3702 37.5064 94.5195 37.1971 94.6688 36.8984C94.8395 36.5358 94.9995 36.1624 95.1488 35.7784C95.3195 35.3944 95.5115 35.0424 95.7248 34.7224C95.7675 34.6371 95.8102 34.5624 95.8528 34.4984C95.8955 34.4344 95.9382 34.3598 95.9808 34.2744C96.1728 34.0184 96.3435 33.8158 96.4928 33.6664C96.5995 33.5811 96.6848 33.5171 96.7488 33.4744C96.8342 33.4104 96.9302 33.3678 97.0368 33.3464C97.1862 33.3038 97.3248 33.2824 97.4528 33.2824C97.6022 33.2611 97.7408 33.2611 97.8688 33.2824C98.0822 33.3464 98.3382 33.4424 98.6368 33.5704C98.9568 33.6984 99.2022 33.9224 99.3728 34.2424ZM102.248 37.0904C102.248 36.5998 102.237 36.0771 102.216 35.5224C102.216 34.9678 102.312 34.4664 102.504 34.0184C102.675 33.6131 102.952 33.3251 103.336 33.1544C103.741 32.9624 104.136 32.9198 104.52 33.0264C104.904 33.0904 105.203 33.2078 105.416 33.3784C105.629 33.5491 105.779 33.7518 105.864 33.9864C105.971 34.1998 106.035 34.4558 106.056 34.7544C106.077 35.0318 106.099 35.3091 106.12 35.5864C106.333 35.2024 106.6 34.8931 106.92 34.6584C107.24 34.4238 107.571 34.2318 107.912 34.0824C108.253 33.9331 108.573 33.8264 108.872 33.7624C109.192 33.6984 109.437 33.6664 109.608 33.6664C110.419 33.6664 111.219 33.8478 112.008 34.2104C112.819 34.5518 113.491 35.0424 114.024 35.6824C114.323 36.0664 114.547 36.4718 114.696 36.8984C114.867 37.3038 114.984 37.7304 115.048 38.1784C115.133 38.6264 115.187 39.0851 115.208 39.5545C115.229 40.0024 115.251 40.4611 115.272 40.9304C115.379 42.2958 115.379 43.6504 115.272 44.9944C115.251 45.2718 115.24 45.5918 115.24 45.9544C115.24 46.3171 115.208 46.6798 115.144 47.0424C115.101 47.3838 115.005 47.6931 114.856 47.9705C114.728 48.2265 114.504 48.3865 114.184 48.4505C113.736 48.5571 113.363 48.5785 113.064 48.5145C112.787 48.4718 112.563 48.3758 112.392 48.2265C112.221 48.0771 112.093 47.8851 112.008 47.6505C111.923 47.4158 111.848 47.1491 111.784 46.8505C111.741 46.6158 111.699 46.3491 111.656 46.0504C111.635 45.7304 111.613 45.4104 111.592 45.0904C111.592 44.7704 111.581 44.4611 111.56 44.1624C111.56 43.8424 111.56 43.5544 111.56 43.2984C111.56 42.8931 111.549 42.4451 111.528 41.9544C111.507 41.4638 111.507 41.0051 111.528 40.5784C111.528 39.5758 111.261 38.8184 110.728 38.3064C110.216 37.7731 109.512 37.5491 108.616 37.6344C107.933 37.7198 107.336 37.9971 106.824 38.4664C106.312 38.9144 106.067 39.5011 106.088 40.2264C106.088 40.5038 106.088 40.7598 106.088 40.9944C106.088 41.2291 106.077 41.4638 106.056 41.6984C106.056 41.9331 106.056 42.1891 106.056 42.4664C106.056 42.7438 106.056 43.0531 106.056 43.3944C106.056 44.0984 106.056 44.8451 106.056 45.6344C106.056 46.4025 105.96 47.0318 105.768 47.5225C105.597 48.0345 105.309 48.3865 104.904 48.5785C104.499 48.7705 104.019 48.7171 103.464 48.4185C103.229 48.2905 103.037 48.1198 102.888 47.9065C102.76 47.6718 102.653 47.4265 102.568 47.1704C102.504 46.9145 102.461 46.6585 102.44 46.4025C102.419 46.1251 102.397 45.8691 102.376 45.6344C102.312 44.9304 102.269 44.2798 102.248 43.6824C102.248 43.0638 102.248 42.4024 102.248 41.6984V37.0904ZM130.318 34.4024C130.488 34.8078 130.499 35.2558 130.35 35.7464C130.222 36.2371 129.976 36.5571 129.614 36.7064C129.422 36.7918 129.166 36.8664 128.846 36.9304C128.526 36.9731 128.174 37.0158 127.79 37.0584C127.427 37.1011 127.064 37.1331 126.702 37.1544C126.339 37.1758 126.03 37.1865 125.774 37.1865C125.795 37.8265 125.816 38.4878 125.838 39.1704C125.859 39.8318 125.88 40.4824 125.902 41.1224C125.923 41.7624 125.934 42.3811 125.934 42.9784C125.934 43.5544 125.923 44.0771 125.902 44.5464C125.902 44.8664 125.902 45.2398 125.902 45.6665C125.902 46.0718 125.87 46.4665 125.806 46.8505C125.763 47.2345 125.688 47.5758 125.582 47.8745C125.475 48.1518 125.315 48.3331 125.102 48.4185C124.44 48.6958 123.832 48.7705 123.278 48.6425C122.744 48.5358 122.36 48.3118 122.126 47.9705C121.955 47.6931 121.827 47.3731 121.742 47.0105C121.656 46.6264 121.592 46.2424 121.55 45.8584C121.528 45.4531 121.518 45.0691 121.518 44.7064C121.539 44.3224 121.55 43.9918 121.55 43.7144C121.571 42.8184 121.582 41.8051 121.582 40.6744C121.603 39.5224 121.614 38.3704 121.614 37.2184H121.134C120.878 37.2184 120.547 37.2184 120.142 37.2184C119.758 37.1971 119.363 37.1651 118.958 37.1224C118.574 37.0584 118.211 36.9838 117.87 36.8984C117.528 36.7918 117.283 36.6424 117.134 36.4504C116.899 36.1731 116.75 35.8744 116.686 35.5544C116.643 35.2344 116.664 34.9358 116.75 34.6584C116.856 34.3598 117.016 34.1038 117.23 33.8904C117.443 33.6558 117.688 33.5064 117.966 33.4424C118.35 33.3358 118.894 33.2824 119.598 33.2824C120.302 33.2611 120.963 33.2611 121.582 33.2824C121.56 33.0691 121.55 32.8664 121.55 32.6744C121.55 32.4611 121.539 32.2585 121.518 32.0665C121.496 31.8104 121.486 31.4904 121.486 31.1064C121.486 30.7011 121.507 30.3064 121.55 29.9224C121.614 29.5171 121.71 29.1438 121.838 28.8024C121.966 28.4398 122.147 28.1624 122.382 27.9704C122.702 27.7144 123.022 27.5758 123.342 27.5544C123.683 27.5118 123.992 27.5544 124.27 27.6824C124.568 27.8104 124.814 28.0024 125.006 28.2584C125.219 28.4931 125.368 28.7598 125.454 29.0584C125.518 29.3144 125.571 29.6238 125.614 29.9864C125.656 30.3278 125.678 30.6904 125.678 31.0744C125.699 31.4584 125.71 31.8424 125.71 32.2264C125.71 32.6104 125.71 32.9624 125.71 33.2824H126.03C126.35 33.2824 126.723 33.2718 127.15 33.2504C127.576 33.2291 127.992 33.2398 128.398 33.2824C128.824 33.3251 129.208 33.4318 129.55 33.6024C129.891 33.7518 130.147 34.0184 130.318 34.4024ZM145.509 42.2104C145.53 42.6371 145.541 43.0851 145.541 43.5545C145.541 44.0024 145.53 44.4184 145.509 44.8024C145.487 45.3784 145.455 45.9118 145.413 46.4025C145.37 46.8718 145.285 47.2771 145.157 47.6185C145.029 47.9385 144.826 48.1838 144.549 48.3545C144.293 48.5038 143.93 48.5465 143.461 48.4825C142.97 48.4185 142.618 48.1838 142.405 47.7785C142.191 47.3731 142.042 46.9145 141.957 46.4025C141.893 45.8691 141.871 45.3358 141.893 44.8024C141.914 44.2691 141.914 43.8531 141.893 43.5545C141.871 43.0851 141.85 42.5518 141.829 41.9544C141.829 41.3358 141.765 40.7598 141.637 40.2264C141.53 39.6718 141.338 39.2024 141.061 38.8184C140.783 38.4344 140.367 38.2318 139.813 38.2104C139.109 38.1678 138.565 38.2211 138.181 38.3705C137.818 38.5198 137.551 38.7438 137.381 39.0424C137.21 39.3198 137.103 39.6611 137.061 40.0665C137.039 40.4718 136.997 40.9091 136.933 41.3784L136.901 42.6264V44.9624C136.901 45.3464 136.89 45.7518 136.869 46.1784C136.869 46.5838 136.805 46.9571 136.677 47.2984C136.549 47.6398 136.346 47.9278 136.069 48.1625C135.813 48.3971 135.429 48.5145 134.917 48.5145C134.277 48.5145 133.797 48.3118 133.477 47.9065C133.178 47.4798 133.029 46.9571 133.029 46.3384V27.9384C133.029 27.8104 133.029 27.6931 133.029 27.5864C133.05 27.4584 133.071 27.3304 133.093 27.2024C133.135 27.0744 133.167 26.9571 133.189 26.8504C133.21 26.7224 133.242 26.6051 133.285 26.4984C133.349 26.2851 133.455 26.1251 133.605 26.0184C133.711 25.9118 133.818 25.8264 133.925 25.7624C134.031 25.6984 134.149 25.6558 134.277 25.6344C134.383 25.6131 134.501 25.6024 134.629 25.6024C134.757 25.5811 134.885 25.5704 135.013 25.5704C135.333 25.5704 135.642 25.6664 135.941 25.8584C136.069 25.9438 136.186 26.0398 136.293 26.1464C136.399 26.2318 136.485 26.3598 136.549 26.5304C136.719 26.9358 136.805 27.3198 136.805 27.6824C136.826 27.7891 136.837 27.9491 136.837 28.1624C136.858 28.3544 136.869 28.5571 136.869 28.7704C136.869 28.9838 136.869 29.1971 136.869 29.4104C136.89 29.6025 136.901 29.7518 136.901 29.8584V30.0184C136.922 30.7011 136.933 31.3944 136.933 32.0984C136.933 32.8024 136.933 33.5171 136.933 34.2424V34.7864C137.829 34.4878 138.767 34.3491 139.749 34.3704C140.73 34.3704 141.605 34.5624 142.373 34.9464C143.162 35.3518 143.759 35.8104 144.165 36.3224C144.591 36.8344 144.901 37.3998 145.093 38.0184C145.285 38.6371 145.391 39.2984 145.413 40.0024C145.455 40.7064 145.487 41.4424 145.509 42.2104ZM149.083 45.1224L149.115 42.5944L149.147 37.8904C149.168 37.2078 149.179 36.5038 149.179 35.7784C149.179 35.0531 149.179 34.3064 149.179 33.5384C149.179 32.7704 149.179 32.0878 149.179 31.4904C149.179 30.8931 149.2 30.2211 149.243 29.4744V29.3464C149.264 29.1331 149.275 28.9198 149.275 28.7064C149.296 28.4718 149.307 28.2371 149.307 28.0024C149.328 27.6184 149.446 27.2024 149.659 26.7544C149.808 26.4558 150.032 26.1998 150.331 25.9864C150.672 25.8158 151.003 25.7304 151.323 25.7304C151.494 25.7304 151.643 25.7411 151.771 25.7624C151.92 25.7624 152.059 25.7731 152.187 25.7944C152.464 25.8371 152.71 25.9651 152.923 26.1784C153.051 26.2851 153.168 26.4558 153.275 26.6904C153.318 26.8184 153.35 26.9464 153.371 27.0744C153.414 27.1811 153.446 27.2984 153.467 27.4264C153.488 27.5758 153.499 27.7144 153.499 27.8424C153.52 27.9704 153.531 28.0984 153.531 28.2264C153.531 28.3758 153.52 28.5144 153.499 28.6424C153.499 28.7491 153.499 28.8664 153.499 28.9944V29.5384L153.307 46.1465V46.4664C153.307 46.5304 153.296 46.6158 153.275 46.7225C153.275 46.8078 153.264 46.9145 153.243 47.0424C153.2 47.1491 153.158 47.2665 153.115 47.3945C153.094 47.5011 153.062 47.6185 153.019 47.7465C152.955 47.8531 152.88 47.9598 152.795 48.0665C152.731 48.1518 152.646 48.2371 152.539 48.3225C152.368 48.4931 152.091 48.6105 151.707 48.6745C151.131 48.8025 150.587 48.7491 150.075 48.5145C149.819 48.3438 149.638 48.1305 149.531 47.8745C149.467 47.8105 149.435 47.7465 149.435 47.6825C149.414 47.6398 149.392 47.6078 149.371 47.5865C149.35 47.5651 149.328 47.5331 149.307 47.4905C149.264 47.3838 149.232 47.2771 149.211 47.1704C149.19 47.0425 149.179 46.9145 149.179 46.7865C149.158 46.6798 149.136 46.5731 149.115 46.4664C149.115 46.3598 149.104 46.2531 149.083 46.1465C149.062 45.9758 149.062 45.7944 149.083 45.6024V45.1224ZM157.092 37.0904C157.092 36.5998 157.081 36.0771 157.06 35.5224C157.06 34.9678 157.156 34.4664 157.348 34.0184C157.518 33.6131 157.796 33.3251 158.18 33.1544C158.585 32.9624 158.98 32.9198 159.364 33.0264C159.748 33.0904 160.046 33.2078 160.26 33.3784C160.473 33.5491 160.622 33.7518 160.708 33.9864C160.814 34.1998 160.878 34.4558 160.9 34.7544C160.921 35.0318 160.942 35.3091 160.964 35.5864C161.177 35.2024 161.444 34.8931 161.764 34.6584C162.084 34.4238 162.414 34.2318 162.756 34.0824C163.097 33.9331 163.417 33.8264 163.716 33.7624C164.036 33.6984 164.281 33.6664 164.452 33.6664C165.262 33.6664 166.062 33.8478 166.852 34.2104C167.662 34.5518 168.334 35.0424 168.868 35.6824C169.166 36.0664 169.39 36.4718 169.54 36.8984C169.71 37.3038 169.828 37.7304 169.892 38.1784C169.977 38.6264 170.03 39.0851 170.052 39.5545C170.073 40.0024 170.094 40.4611 170.116 40.9304C170.222 42.2958 170.222 43.6504 170.116 44.9944C170.094 45.2718 170.084 45.5918 170.084 45.9544C170.084 46.3171 170.052 46.6798 169.988 47.0424C169.945 47.3838 169.849 47.6931 169.7 47.9705C169.572 48.2265 169.348 48.3865 169.028 48.4505C168.58 48.5571 168.206 48.5785 167.908 48.5145C167.63 48.4718 167.406 48.3758 167.236 48.2265C167.065 48.0771 166.937 47.8851 166.852 47.6505C166.766 47.4158 166.692 47.1491 166.628 46.8505C166.585 46.6158 166.542 46.3491 166.5 46.0504C166.478 45.7304 166.457 45.4104 166.436 45.0904C166.436 44.7704 166.425 44.4611 166.404 44.1624C166.404 43.8424 166.404 43.5544 166.404 43.2984C166.404 42.8931 166.393 42.4451 166.372 41.9544C166.35 41.4638 166.35 41.0051 166.372 40.5784C166.372 39.5758 166.105 38.8184 165.572 38.3064C165.06 37.7731 164.356 37.5491 163.46 37.6344C162.777 37.7198 162.18 37.9971 161.668 38.4664C161.156 38.9144 160.91 39.5011 160.932 40.2264C160.932 40.5038 160.932 40.7598 160.932 40.9944C160.932 41.2291 160.921 41.4638 160.9 41.6984C160.9 41.9331 160.9 42.1891 160.9 42.4664C160.9 42.7438 160.9 43.0531 160.9 43.3944C160.9 44.0984 160.9 44.8451 160.9 45.6344C160.9 46.4025 160.804 47.0318 160.612 47.5225C160.441 48.0345 160.153 48.3865 159.748 48.5785C159.342 48.7705 158.862 48.7171 158.308 48.4185C158.073 48.2905 157.881 48.1198 157.732 47.9065C157.604 47.6718 157.497 47.4265 157.412 47.1704C157.348 46.9145 157.305 46.6585 157.284 46.4025C157.262 46.1251 157.241 45.8691 157.22 45.6344C157.156 44.9304 157.113 44.2798 157.092 43.6824C157.092 43.0638 157.092 42.4024 157.092 41.6984V37.0904ZM186.394 34.4984C186.479 34.7544 186.5 35.0424 186.458 35.3624C186.415 35.6824 186.34 36.0131 186.234 36.3544C186.127 36.6744 185.999 36.9944 185.85 37.3144C185.722 37.6131 185.604 37.8798 185.498 38.1144C184.943 39.2451 184.42 40.3544 183.93 41.4424C183.439 42.5304 182.863 43.7144 182.202 44.9944C182.074 45.2504 181.924 45.5598 181.754 45.9225C181.604 46.2638 181.434 46.6051 181.242 46.9464C181.05 47.2665 180.836 47.5651 180.602 47.8425C180.388 48.1198 180.154 48.3225 179.898 48.4505C179.684 48.5785 179.471 48.6318 179.258 48.6105C179.087 48.6531 178.895 48.5998 178.682 48.4505C178.426 48.3225 178.18 48.1198 177.946 47.8425C177.732 47.5651 177.53 47.2665 177.338 46.9464C177.146 46.6051 176.964 46.2638 176.794 45.9225C176.644 45.5598 176.506 45.2504 176.378 44.9944C176.122 44.5038 175.876 44.0451 175.642 43.6184C175.428 43.1918 175.194 42.7331 174.938 42.2424C174.703 41.7304 174.436 41.1544 174.138 40.5145C173.839 39.8531 173.487 39.0531 173.082 38.1144C172.975 37.8584 172.858 37.5918 172.73 37.3144C172.602 37.0371 172.484 36.7384 172.378 36.4184C172.292 36.0984 172.228 35.7784 172.186 35.4584C172.164 35.1171 172.186 34.7758 172.25 34.4344C172.314 34.1144 172.474 33.8584 172.73 33.6664C172.986 33.4744 173.274 33.3464 173.594 33.2824C173.914 33.2184 174.234 33.2291 174.554 33.3144C174.874 33.3784 175.13 33.5171 175.322 33.7304C175.514 33.9224 175.695 34.1784 175.866 34.4984C176.036 34.8184 176.196 35.1598 176.346 35.5224C176.516 35.8638 176.666 36.2158 176.794 36.5784C176.943 36.9198 177.082 37.2184 177.21 37.4744C177.508 38.0931 177.839 38.7651 178.202 39.4904C178.586 40.2158 178.927 40.8878 179.226 41.5064C179.439 41.0158 179.631 40.6104 179.802 40.2905C179.972 39.9491 180.132 39.6184 180.282 39.2984C180.452 38.9784 180.623 38.6264 180.794 38.2424C180.986 37.8584 181.22 37.3678 181.498 36.7704C181.754 36.2158 182.01 35.6718 182.266 35.1384C182.543 34.6051 182.874 34.1358 183.258 33.7304C183.45 33.5171 183.695 33.3784 183.994 33.3144C184.292 33.2291 184.602 33.2184 184.922 33.2824C185.242 33.3464 185.53 33.4851 185.786 33.6984C186.063 33.8904 186.266 34.1571 186.394 34.4984ZM192.469 34.0504C193.173 33.7091 193.909 33.4638 194.677 33.3144C195.445 33.1651 196.202 33.1331 196.949 33.2184C197.717 33.3038 198.453 33.5064 199.157 33.8264C199.882 34.1464 200.544 34.5944 201.141 35.1704C201.632 35.6611 202.058 36.2584 202.421 36.9624C202.784 37.6451 203.05 38.3171 203.221 38.9784C203.584 40.1518 203.637 41.3358 203.381 42.5304C203.125 43.7251 202.688 44.8344 202.069 45.8584C201.77 46.3278 201.397 46.7544 200.949 47.1385C200.522 47.5011 200.064 47.7998 199.573 48.0345C198.933 48.3331 198.24 48.5358 197.493 48.6425C196.746 48.7705 196.021 48.8025 195.317 48.7385C194.037 48.6745 192.906 48.3545 191.925 47.7785C190.965 47.2025 190.186 46.4664 189.589 45.5704C189.013 44.6744 188.629 43.6611 188.437 42.5304C188.266 41.3784 188.341 40.2051 188.661 39.0104C189.002 37.7304 189.493 36.6958 190.133 35.9064C190.794 35.0958 191.573 34.4771 192.469 34.0504ZM193.429 38.3384C193.109 38.6371 192.864 39.0104 192.693 39.4584C192.522 39.9064 192.416 40.3758 192.373 40.8664C192.33 41.3358 192.362 41.8158 192.469 42.3064C192.597 42.7758 192.789 43.2024 193.045 43.5864C193.258 43.9064 193.642 44.1731 194.197 44.3864C194.752 44.5998 195.328 44.7278 195.925 44.7704C196.608 44.8131 197.205 44.6318 197.717 44.2264C198.229 43.7998 198.613 43.2771 198.869 42.6584C199.146 42.0398 199.274 41.3678 199.253 40.6424C199.232 39.9171 199.04 39.2558 198.677 38.6584C198.421 38.2318 198.058 37.9224 197.589 37.7304C197.141 37.5171 196.661 37.4104 196.149 37.4104C195.658 37.3891 195.168 37.4638 194.677 37.6344C194.186 37.7838 193.77 38.0184 193.429 38.3384ZM225.835 46.3384C225.856 46.4664 225.867 46.5944 225.867 46.7225C225.888 46.8291 225.899 46.9571 225.899 47.1064C225.899 47.3625 225.824 47.5971 225.675 47.8105C225.611 47.9171 225.526 48.0238 225.419 48.1305C225.312 48.2158 225.184 48.2905 225.035 48.3545C224.502 48.6531 223.936 48.7598 223.339 48.6745C223.04 48.5891 222.774 48.4505 222.539 48.2585C222.496 48.2158 222.464 48.1945 222.443 48.1945C222.422 48.1731 222.4 48.1411 222.379 48.0985C222.358 48.0771 222.336 48.0558 222.315 48.0345C222.294 47.9918 222.262 47.9598 222.219 47.9385C222.112 47.8318 222.027 47.7358 221.963 47.6505C221.899 47.5438 221.835 47.4371 221.771 47.3305C221.728 47.2238 221.675 47.1278 221.611 47.0424C221.568 46.9358 221.515 46.8291 221.451 46.7225C221.408 46.6371 221.366 46.5625 221.323 46.4985C221.28 46.4131 221.248 46.3278 221.227 46.2424C221.142 46.0504 221.088 45.8798 221.067 45.7304L220.395 44.1624C218.923 44.1624 217.451 44.1731 215.979 44.1944C214.528 44.1944 213.067 44.1838 211.595 44.1624L210.923 45.7304C210.88 45.8158 210.848 45.9011 210.827 45.9864C210.827 46.0718 210.806 46.1571 210.763 46.2424C210.72 46.3278 210.678 46.4131 210.635 46.4985C210.614 46.5625 210.582 46.6371 210.539 46.7225C210.475 46.8291 210.411 46.9358 210.347 47.0424C210.304 47.1278 210.251 47.2238 210.187 47.3305C210.144 47.4371 210.091 47.5438 210.027 47.6505C209.963 47.7358 209.878 47.8318 209.771 47.9385C209.728 47.9598 209.696 47.9918 209.675 48.0345C209.654 48.0558 209.632 48.0771 209.611 48.0985C209.59 48.1411 209.568 48.1731 209.547 48.1945C209.526 48.1945 209.494 48.2158 209.451 48.2585C209.216 48.4505 208.95 48.5891 208.651 48.6745C208.054 48.7598 207.488 48.6531 206.955 48.3545C206.806 48.2905 206.678 48.2158 206.571 48.1305C206.464 48.0238 206.379 47.9171 206.315 47.8105C206.166 47.5971 206.091 47.3625 206.091 47.1064C206.091 46.9571 206.091 46.8291 206.091 46.7225C206.112 46.5944 206.134 46.4664 206.155 46.3384C206.198 46.1464 206.251 45.9544 206.315 45.7624C206.379 45.5704 206.411 45.4744 206.411 45.4744L213.067 29.0904L213.259 28.5784C213.302 28.4504 213.355 28.3331 213.419 28.2264C213.483 28.1198 213.536 27.9918 213.579 27.8424C213.686 27.5651 213.803 27.3198 213.931 27.1064C213.995 26.9784 214.07 26.8611 214.155 26.7544C214.24 26.6478 214.326 26.5411 214.411 26.4344C214.539 26.2638 214.72 26.1251 214.955 26.0184C215.254 25.9118 215.595 25.8584 215.979 25.8584C216.384 25.8584 216.736 25.9118 217.035 26.0184C217.27 26.1251 217.451 26.2638 217.579 26.4344C217.728 26.6264 217.888 26.8504 218.059 27.1064C218.187 27.3198 218.304 27.5651 218.411 27.8424C218.454 27.9918 218.507 28.1198 218.571 28.2264C218.635 28.3331 218.688 28.4504 218.731 28.5784L218.923 29.0904L225.579 45.4744C225.579 45.4744 225.611 45.5704 225.675 45.7624C225.739 45.9544 225.792 46.1464 225.835 46.3384ZM218.251 38.4984C217.974 37.8798 217.686 37.2398 217.387 36.5784C217.11 35.9171 216.811 35.2451 216.491 34.5624C216.406 34.3704 216.32 34.1784 216.235 33.9864C216.15 33.7731 216.064 33.5704 215.979 33.3784C215.915 33.5704 215.84 33.7731 215.755 33.9864C215.67 34.1784 215.584 34.3704 215.499 34.5624C215.179 35.2451 214.87 35.9171 214.571 36.5784C214.294 37.2398 214.016 37.8798 213.739 38.4984L213.163 39.9064H218.827L218.251 38.4984ZM228.498 37.0904C228.498 36.5998 228.487 36.0771 228.466 35.5224C228.466 34.9678 228.562 34.4664 228.754 34.0184C228.925 33.6131 229.202 33.3251 229.586 33.1544C229.991 32.9624 230.386 32.9198 230.77 33.0264C231.154 33.0904 231.453 33.2078 231.666 33.3784C231.879 33.5491 232.029 33.7518 232.114 33.9864C232.221 34.1998 232.285 34.4558 232.306 34.7544C232.327 35.0318 232.349 35.3091 232.37 35.5864C232.583 35.2024 232.85 34.8931 233.17 34.6584C233.49 34.4238 233.821 34.2318 234.162 34.0824C234.503 33.9331 234.823 33.8264 235.122 33.7624C235.442 33.6984 235.687 33.6664 235.858 33.6664C236.669 33.6664 237.469 33.8478 238.258 34.2104C239.069 34.5518 239.741 35.0424 240.274 35.6824C240.573 36.0664 240.797 36.4718 240.946 36.8984C241.117 37.3038 241.234 37.7304 241.298 38.1784C241.383 38.6264 241.437 39.0851 241.458 39.5545C241.479 40.0024 241.501 40.4611 241.522 40.9304C241.629 42.2958 241.629 43.6504 241.522 44.9944C241.501 45.2718 241.49 45.5918 241.49 45.9544C241.49 46.3171 241.458 46.6798 241.394 47.0424C241.351 47.3838 241.255 47.6931 241.106 47.9705C240.978 48.2265 240.754 48.3865 240.434 48.4505C239.986 48.5571 239.613 48.5785 239.314 48.5145C239.037 48.4718 238.813 48.3758 238.642 48.2265C238.471 48.0771 238.343 47.8851 238.258 47.6505C238.173 47.4158 238.098 47.1491 238.034 46.8505C237.991 46.6158 237.949 46.3491 237.906 46.0504C237.885 45.7304 237.863 45.4104 237.842 45.0904C237.842 44.7704 237.831 44.4611 237.81 44.1624C237.81 43.8424 237.81 43.5544 237.81 43.2984C237.81 42.8931 237.799 42.4451 237.778 41.9544C237.757 41.4638 237.757 41.0051 237.778 40.5784C237.778 39.5758 237.511 38.8184 236.978 38.3064C236.466 37.7731 235.762 37.5491 234.866 37.6344C234.183 37.7198 233.586 37.9971 233.074 38.4664C232.562 38.9144 232.317 39.5011 232.338 40.2264C232.338 40.5038 232.338 40.7598 232.338 40.9944C232.338 41.2291 232.327 41.4638 232.306 41.6984C232.306 41.9331 232.306 42.1891 232.306 42.4664C232.306 42.7438 232.306 43.0531 232.306 43.3944C232.306 44.0984 232.306 44.8451 232.306 45.6344C232.306 46.4025 232.21 47.0318 232.018 47.5225C231.847 48.0345 231.559 48.3865 231.154 48.5785C230.749 48.7705 230.269 48.7171 229.714 48.4185C229.479 48.2905 229.287 48.1198 229.138 47.9065C229.01 47.6718 228.903 47.4265 228.818 47.1704C228.754 46.9145 228.711 46.6585 228.69 46.4025C228.669 46.1251 228.647 45.8691 228.626 45.6344C228.562 44.9304 228.519 44.2798 228.498 43.6824C228.498 43.0638 228.498 42.4024 228.498 41.6984V37.0904ZM247.929 35.0424C248.569 34.7224 249.241 34.4984 249.945 34.3704C250.649 34.2211 251.342 34.1891 252.025 34.2744C252.729 34.3384 253.401 34.5198 254.041 34.8184C254.681 35.0958 255.278 35.5011 255.833 36.0344C256.387 36.5891 256.814 37.1971 257.113 37.8584C257.411 38.5198 257.625 39.2558 257.753 40.0665C257.838 40.6211 257.977 41.1331 258.169 41.6024C258.361 42.0718 258.563 42.5411 258.777 43.0104C259.011 43.4798 259.225 43.9491 259.417 44.4184C259.63 44.8878 259.801 45.3784 259.929 45.8905C260.035 46.3811 259.993 46.8611 259.801 47.3305C259.63 47.7785 259.267 48.0558 258.713 48.1625C258.393 48.2265 258.083 48.2051 257.785 48.0985C257.507 47.9705 257.251 47.7998 257.017 47.5865C256.782 47.3518 256.569 47.1065 256.377 46.8505C256.206 46.5731 256.046 46.3171 255.897 46.0824C255.406 46.7224 254.873 47.2238 254.297 47.5865C253.721 47.9278 253.027 48.1518 252.217 48.2585C251.534 48.3438 250.883 48.3651 250.265 48.3225C249.646 48.2798 248.985 48.1625 248.281 47.9705C247.363 47.7358 246.606 47.3305 246.009 46.7544C245.433 46.1571 244.985 45.4744 244.665 44.7064C244.366 43.9171 244.206 43.0744 244.185 42.1784C244.163 41.2824 244.27 40.3971 244.505 39.5224C244.803 38.3704 245.251 37.4318 245.849 36.7064C246.446 35.9811 247.139 35.4264 247.929 35.0424ZM248.729 38.7864C248.43 39.0851 248.195 39.4371 248.025 39.8424C247.854 40.2478 247.747 40.6744 247.705 41.1224C247.683 41.5704 247.726 42.0184 247.833 42.4664C247.939 42.9144 248.11 43.3091 248.345 43.6504C248.558 43.9491 248.921 44.2051 249.433 44.4184C249.945 44.6104 250.478 44.7278 251.033 44.7704C251.673 44.8131 252.227 44.6425 252.697 44.2585C253.187 43.8744 253.55 43.3944 253.785 42.8184C254.041 42.2211 254.158 41.5918 254.137 40.9304C254.115 40.2478 253.934 39.6291 253.593 39.0744C253.337 38.6691 252.995 38.3704 252.569 38.1784C252.163 37.9864 251.726 37.8904 251.257 37.8904C250.787 37.8691 250.318 37.9438 249.849 38.1144C249.401 38.2638 249.027 38.4878 248.729 38.7864ZM266.847 45.9544C266.826 46.0611 266.804 46.1678 266.783 46.2745C266.783 46.3598 266.783 46.4558 266.783 46.5624L266.591 47.2344C266.548 47.3198 266.516 47.3731 266.495 47.3945L266.399 47.5865C266.292 47.8211 266.1 48.0131 265.823 48.1625C265.311 48.4185 264.767 48.4825 264.191 48.3545C263.828 48.3118 263.54 48.2051 263.327 48.0345C263.114 47.8851 262.964 47.7038 262.879 47.4905C262.794 47.2771 262.73 47.0638 262.687 46.8505C262.623 46.6371 262.591 46.4451 262.591 46.2745V28.3544C262.591 28.2051 262.591 28.0771 262.591 27.9704C262.612 27.8424 262.634 27.7251 262.655 27.6184C262.676 27.4691 262.698 27.3411 262.719 27.2344C262.762 27.1278 262.804 27.0104 262.847 26.8824C262.911 26.6691 263.028 26.4984 263.199 26.3704C263.455 26.1784 263.7 26.0718 263.935 26.0504C264.084 26.0078 264.223 25.9864 264.351 25.9864C264.479 25.9651 264.628 25.9544 264.799 25.9544C265.098 25.9544 265.439 26.0398 265.823 26.2104C266.122 26.3811 266.335 26.6158 266.463 26.9144C266.676 27.3411 266.783 27.7358 266.783 28.0984C266.804 28.3118 266.815 28.6318 266.815 29.0584C266.836 29.4851 266.847 29.8051 266.847 30.0184V30.1465C266.89 30.8291 266.911 31.4904 266.911 32.1304C266.911 32.7491 266.9 33.4318 266.879 34.1784C266.879 34.9038 266.868 35.6078 266.847 36.2904C266.847 36.9518 266.847 37.6131 266.847 38.2744V44.9944C266.847 45.0798 266.847 45.1651 266.847 45.2504C266.868 45.3144 266.879 45.3891 266.879 45.4744C266.879 45.6878 266.868 45.8478 266.847 45.9544ZM284.154 34.2424C284.346 34.5411 284.431 34.8611 284.41 35.2024C284.41 35.6931 284.325 36.1198 284.154 36.4824C284.111 36.5891 284.047 36.7278 283.962 36.8984C283.898 37.0691 283.823 37.2504 283.738 37.4424C283.674 37.6344 283.599 37.8158 283.514 37.9864C283.429 38.1571 283.365 38.2851 283.322 38.3705L283.258 38.5304C282.959 39.1918 282.671 39.8318 282.394 40.4504C282.117 41.0691 281.807 41.7304 281.466 42.4344C281.125 43.1171 280.794 43.7891 280.474 44.4504C280.175 45.0904 279.877 45.7198 279.578 46.3384C279.493 46.5091 279.418 46.6798 279.354 46.8505C279.29 46.9998 279.205 47.1598 279.098 47.3305L277.562 50.6265C277.285 51.1811 277.018 51.7251 276.762 52.2585C276.527 52.7918 276.261 53.3251 275.962 53.8585C275.898 53.9651 275.834 54.0611 275.77 54.1465C275.727 54.2531 275.685 54.3598 275.642 54.4665C275.493 54.7225 275.269 54.9678 274.97 55.2025C274.693 55.4585 274.394 55.5971 274.074 55.6185C273.498 55.6611 272.997 55.4905 272.57 55.1065C272.314 54.9571 272.111 54.7438 271.962 54.4665C271.877 54.2745 271.834 54.0291 271.834 53.7305C271.855 53.6025 271.866 53.4745 271.866 53.3465C271.887 53.2398 271.909 53.1331 271.93 53.0265C271.973 52.9198 272.005 52.8131 272.026 52.7065C272.047 52.5998 272.079 52.5145 272.122 52.4505C272.186 52.2798 272.239 52.1945 272.282 52.1945L274.618 47.1385C274.511 46.9038 274.405 46.6691 274.298 46.4344C274.191 46.1784 274.095 45.9544 274.01 45.7624C273.733 45.1011 273.434 44.4078 273.114 43.6824C272.815 42.9358 272.506 42.1998 272.186 41.4744C271.866 40.7278 271.535 40.0024 271.194 39.2984C270.853 38.5944 270.511 37.9224 270.17 37.2824C270.042 37.0691 269.925 36.8451 269.818 36.6104C269.711 36.3544 269.626 36.1091 269.562 35.8744C269.498 35.6184 269.477 35.3624 269.498 35.1064C269.519 34.8504 269.615 34.5944 269.786 34.3384C269.957 34.0184 270.181 33.7944 270.458 33.6664C270.735 33.5171 271.023 33.4531 271.322 33.4744C271.642 33.4744 271.941 33.5384 272.218 33.6664C272.495 33.7944 272.719 33.9651 272.89 34.1784C273.253 34.5624 273.541 34.9891 273.754 35.4584C273.967 35.9278 274.17 36.4078 274.362 36.8984C274.767 37.7518 275.183 38.6478 275.61 39.5864C276.037 40.5251 276.463 41.4424 276.89 42.3384L278.554 38.8184C278.725 38.4771 278.874 38.1464 279.002 37.8264C279.151 37.5064 279.301 37.1971 279.45 36.8984C279.621 36.5358 279.781 36.1624 279.93 35.7784C280.101 35.3944 280.293 35.0424 280.506 34.7224C280.549 34.6371 280.591 34.5624 280.634 34.4984C280.677 34.4344 280.719 34.3598 280.762 34.2744C280.954 34.0184 281.125 33.8158 281.274 33.6664C281.381 33.5811 281.466 33.5171 281.53 33.4744C281.615 33.4104 281.711 33.3678 281.818 33.3464C281.967 33.3038 282.106 33.2824 282.234 33.2824C282.383 33.2611 282.522 33.2611 282.65 33.2824C282.863 33.3464 283.119 33.4424 283.418 33.5704C283.738 33.6984 283.983 33.9224 284.154 34.2424ZM295.765 44.6744C296.085 44.6744 296.437 44.6851 296.821 44.7064C297.227 44.7064 297.611 44.7384 297.973 44.8024C298.357 44.8451 298.699 44.9304 298.997 45.0584C299.317 45.1864 299.541 45.3571 299.669 45.5704C299.989 46.1251 300.085 46.6265 299.957 47.0745C299.851 47.5011 299.616 47.8318 299.253 48.0665C298.869 48.3438 298.421 48.5251 297.909 48.6105C297.397 48.7171 296.928 48.7598 296.501 48.7385C295.627 48.6958 294.699 48.6851 293.717 48.7065C292.736 48.7491 291.808 48.7811 290.933 48.8025C290.635 48.8025 290.315 48.8025 289.973 48.8025C289.653 48.8238 289.344 48.8025 289.045 48.7385C288.747 48.6958 288.459 48.5998 288.181 48.4505C287.925 48.3011 287.701 48.0665 287.509 47.7465C287.253 47.3411 287.189 46.9358 287.317 46.5304C287.467 46.1038 287.637 45.7091 287.829 45.3464C288.128 44.8131 288.48 44.2904 288.885 43.7785C289.312 43.2664 289.675 42.8291 289.973 42.4664L293.973 37.2184L290.741 37.3144C290.485 37.3144 290.208 37.3144 289.909 37.3144C289.632 37.3144 289.344 37.2931 289.045 37.2504C288.747 37.1864 288.469 37.1118 288.213 37.0264C287.957 36.9411 287.733 36.8131 287.541 36.6424C287.349 36.4504 287.211 36.2371 287.125 36.0024C287.04 35.7464 286.997 35.4904 286.997 35.2344C287.019 34.9784 287.072 34.7331 287.157 34.4984C287.264 34.2424 287.403 34.0184 287.573 33.8264C287.701 33.6984 287.861 33.5918 288.053 33.5064C288.267 33.4211 288.501 33.3571 288.757 33.3144C289.013 33.2718 289.269 33.2504 289.525 33.2504C289.803 33.2291 290.059 33.2184 290.293 33.2184C290.763 33.2184 291.285 33.2184 291.861 33.2184C292.437 33.2184 292.992 33.2184 293.525 33.2184C294.08 33.1971 294.592 33.1864 295.061 33.1864C295.552 33.1651 295.947 33.1544 296.245 33.1544C296.629 33.1544 297.013 33.1438 297.397 33.1224C297.781 33.1011 298.144 33.1331 298.485 33.2184C298.827 33.3038 299.115 33.4638 299.349 33.6984C299.605 33.9118 299.765 34.2638 299.829 34.7544C299.872 35.0744 299.851 35.3944 299.765 35.7144C299.701 36.0131 299.584 36.3118 299.413 36.6104C299.264 36.8878 299.083 37.1758 298.869 37.4744C298.656 37.7518 298.443 38.0184 298.229 38.2744L293.269 44.6744H295.765ZM313.663 44.1304C313.919 44.0664 314.175 44.0238 314.431 44.0024C314.708 43.9811 314.954 44.0131 315.167 44.0984C315.402 44.1838 315.594 44.3331 315.743 44.5464C315.892 44.7384 315.967 45.0158 315.967 45.3784C315.967 45.6344 315.903 45.8798 315.775 46.1144C315.647 46.3491 315.487 46.5624 315.295 46.7544C315.103 46.9464 314.89 47.1171 314.655 47.2665C314.42 47.3945 314.196 47.5011 313.983 47.5865C313.364 47.8638 312.65 48.0771 311.839 48.2265C311.05 48.3758 310.228 48.4291 309.375 48.3865C308.223 48.3438 307.114 48.1198 306.047 47.7145C305.002 47.2878 304.18 46.5944 303.583 45.6344C303.028 44.6958 302.698 43.6504 302.591 42.4984C302.484 41.3464 302.538 40.2584 302.751 39.2344C302.986 37.9971 303.38 36.9944 303.935 36.2264C304.511 35.4371 305.194 34.8078 305.983 34.3384C306.943 33.7838 308.02 33.4958 309.215 33.4744C310.41 33.4531 311.551 33.6878 312.639 34.1784C313.364 34.4984 314.015 34.9358 314.591 35.4904C315.167 36.0238 315.604 36.6744 315.903 37.4424C315.988 37.6344 316.052 37.8691 316.095 38.1465C316.159 38.4238 316.202 38.7224 316.223 39.0424C316.244 39.3411 316.244 39.6398 316.223 39.9384C316.202 40.2371 316.148 40.5038 316.063 40.7384C315.935 41.1224 315.775 41.4211 315.583 41.6344C315.391 41.8478 315.146 42.0078 314.847 42.1144C314.548 42.2211 314.186 42.2958 313.759 42.3384C313.354 42.3598 312.863 42.3811 312.287 42.4024C311.775 42.4238 311.295 42.4344 310.847 42.4344C310.399 42.4344 309.94 42.4344 309.471 42.4344C309.002 42.4131 308.511 42.4024 307.999 42.4024C307.508 42.3811 306.954 42.3598 306.335 42.3384C306.271 42.7651 306.324 43.1384 306.495 43.4584C306.687 43.7571 306.943 44.0131 307.263 44.2264C307.583 44.4185 307.946 44.5678 308.351 44.6744C308.756 44.7811 309.151 44.8451 309.535 44.8664C310.26 44.9091 310.954 44.8558 311.615 44.7064C312.276 44.5358 312.959 44.3438 313.663 44.1304ZM312.287 37.9224C311.882 37.4531 311.455 37.1118 311.007 36.8984C310.666 36.7491 310.303 36.6851 309.919 36.7064C309.556 36.7064 309.204 36.7598 308.863 36.8664C308.244 37.0158 307.722 37.3358 307.295 37.8264C307.252 37.8691 307.178 37.9758 307.071 38.1465C306.964 38.2958 306.858 38.4558 306.751 38.6264C306.666 38.7971 306.602 38.9571 306.559 39.1065C306.516 39.2558 306.538 39.3305 306.623 39.3305H312.895C312.874 39.0318 312.82 38.7864 312.735 38.5944C312.65 38.3811 312.5 38.1571 312.287 37.9224ZM318.842 37.1865C318.842 36.9304 318.842 36.6424 318.842 36.3224C318.842 35.9811 318.852 35.6398 318.874 35.2984C318.895 34.9358 318.927 34.5944 318.97 34.2744C319.034 33.9331 319.119 33.6344 319.226 33.3784C319.396 32.9944 319.663 32.7384 320.026 32.6104C320.388 32.4611 320.783 32.3971 321.21 32.4184C321.658 32.4184 322.01 32.4931 322.266 32.6424C322.522 32.7918 322.714 32.9944 322.842 33.2504C322.97 33.4851 323.044 33.7624 323.066 34.0824C323.108 34.3811 323.13 34.7011 323.13 35.0424C323.322 34.7011 323.578 34.4238 323.898 34.2104C324.239 33.9971 324.58 33.8264 324.922 33.6984C325.263 33.5704 325.572 33.4851 325.85 33.4424C326.127 33.3784 326.287 33.3464 326.33 33.3464C326.863 33.3038 327.343 33.2931 327.77 33.3144C328.218 33.3358 328.708 33.4318 329.242 33.6024C329.583 33.7304 329.935 33.9118 330.298 34.1464C330.66 34.3598 330.98 34.6158 331.258 34.9144C331.535 35.2131 331.716 35.5438 331.802 35.9064C331.908 36.2478 331.866 36.6104 331.674 36.9944C331.375 37.5278 331.044 37.7944 330.682 37.7944C330.319 37.7731 329.924 37.7091 329.498 37.6024C329.263 37.5598 328.986 37.4638 328.666 37.3144C328.346 37.1651 328.068 37.0691 327.834 37.0264C327.108 36.9198 326.468 36.9731 325.914 37.1865C325.359 37.3998 324.879 37.6558 324.474 37.9544C324.004 38.3171 323.599 38.7331 323.258 39.2024V43.8105C323.258 44.3864 323.247 44.9838 323.226 45.6024C323.226 46.2211 323.14 46.7864 322.97 47.2984C322.82 47.7891 322.554 48.1945 322.17 48.5145C321.807 48.8131 321.274 48.9411 320.57 48.8985C320.186 48.8771 319.844 48.6958 319.546 48.3545C319.247 47.9918 319.066 47.6398 319.002 47.2984C318.959 46.9784 318.927 46.5944 318.906 46.1465C318.884 45.6984 318.863 45.2291 318.842 44.7384C318.842 44.2478 318.842 43.7571 318.842 43.2664C318.842 42.7544 318.842 42.2851 318.842 41.8584V37.1865Z" fill="white"/>
</svg>
