<?xml version="1.0" encoding="utf-8"?>
<!-- Generator: Adobe Illustrator 27.5.0, SVG Export Plug-In . SVG Version: 6.00 Build 0)  -->
<svg version="1.1" id="Layer_1" xmlns="http://www.w3.org/2000/svg" xmlns:xlink="http://www.w3.org/1999/xlink" x="0px" y="0px"
	 viewBox="0 0 3000 1800" style="enable-background:new 0 0 3000 1800;" xml:space="preserve">
<rect style="fill:#FFFFFF;" width="3000" height="1800"/>
<g>
	<defs>
		<path id="XMLID_00000075876325994856039040000003529236256489201043_" d="M262.581,1644.023h2588.032l-133.626-694.825
			c-67.99-353.529-420.526-576.08-768.93-485.413l-401.157,104.395c-88.629,23.064-181.217,26.555-271.33,10.228l-81.654-14.794
			c-402.36-72.897-786.4,198.028-852.677,601.532L262.581,1644.023z"/>
	</defs>
	<use xlink:href="#XMLID_00000075876325994856039040000003529236256489201043_"  style="overflow:visible;fill:#DCECFD;"/>
	<clipPath id="XMLID_00000017506288392801230240000011573761507155667351_">
		<use xlink:href="#XMLID_00000075876325994856039040000003529236256489201043_"  style="overflow:visible;"/>
	</clipPath>
	<polygon style="opacity:0.7;clip-path:url(#XMLID_00000017506288392801230240000011573761507155667351_);fill:#F1F8FE;" points="
		2686.048,1690.538 2686.048,1129.906 2356.589,1129.906 2356.589,808.927 1471.044,808.927 1471.044,1301.278 262.581,1301.278 
		205.742,1684.133 	"/>
</g>
<g>
	<path style="fill:#152E60;" d="M2147.778,1559.782l2.356,19.404l-43.756,45.396c-5.212,5.408-6.701,13.402-3.783,20.323l0,0
		l110.285-46.484l-27.833-54.347L2147.778,1559.782z"/>
	<g>
		<g>
			<defs>
				<polygon id="XMLID_00000075132106328101456290000012615628083058901124_" points="1666.728,712.262 1571.607,680.529 
					1567.814,722.407 1666.728,783.876 				"/>
			</defs>
			<use xlink:href="#XMLID_00000075132106328101456290000012615628083058901124_"  style="overflow:visible;fill:#F4D2C6;"/>
			<clipPath id="XMLID_00000174575753594159359860000004300879932001524400_">
				<use xlink:href="#XMLID_00000075132106328101456290000012615628083058901124_"  style="overflow:visible;"/>
			</clipPath>
			<polygon style="clip-path:url(#XMLID_00000174575753594159359860000004300879932001524400_);fill:#EDA19D;" points="
				1644.985,690.787 1631.768,772.922 1688.412,807.145 1695.021,693.62 			"/>
		</g>
		<path style="fill:#F4D2C6;" d="M1575.937,681.973c0,0-40.066-43.77-44.484-41.036c-11.886,7.358,14.433,30.564,9.622,31.696
			c-4.811,1.132-64.808-5.377-66.223,0.283c-1.415,5.66,12.735,46.413,20.093,49.526c7.358,3.113,78.958,1.698,78.958,1.698
			L1575.937,681.973z"/>
	</g>
	<g>
		<defs>
			<path id="XMLID_00000082345918303459804180000001993571190064650656_" d="M1831.16,890.137l-85.369,213.607
				c-7.317,18.309-11.076,37.844-11.076,57.561v421.827h64.079l70.087-413.626l155.209-240.737L1831.16,890.137z"/>
		</defs>
		<use xlink:href="#XMLID_00000082345918303459804180000001993571190064650656_"  style="overflow:visible;fill:#324D90;"/>
		<clipPath id="XMLID_00000052814282700916570370000001768666115326845331_">
			<use xlink:href="#XMLID_00000082345918303459804180000001993571190064650656_"  style="overflow:visible;"/>
		</clipPath>
		<path style="clip-path:url(#XMLID_00000052814282700916570370000001768666115326845331_);fill:#2A437D;" d="M1921.424,1088.007
			l-8.979-109.646c0,0-100.235,170.693-101.891,198.839c-1.656,28.146-39.735,417.223-39.735,417.223h46.358l69.537-423.846
			L1921.424,1088.007"/>
	</g>
	<g>
		<defs>
			<path id="XMLID_00000160893244765302126310000007528659780430969500_" d="M1905.458,893.034l21.882,267.216
				c1.238,15.112,5.505,29.82,12.548,43.247l199.142,379.636l56.746-29.766l-125.103-383.6l21.056-234.306L1905.458,893.034z"/>
		</defs>
		<use xlink:href="#XMLID_00000160893244765302126310000007528659780430969500_"  style="overflow:visible;fill:#324D90;"/>
		<clipPath id="XMLID_00000141422435230989695020000002444898751224013720_">
			<use xlink:href="#XMLID_00000160893244765302126310000007528659780430969500_"  style="overflow:visible;"/>
		</clipPath>
		<path style="clip-path:url(#XMLID_00000141422435230989695020000002444898751224013720_);fill:#2A437D;" d="M1912.061,947.235
			c0,0,57.822,83.109,193.511,107.78l6.938-96.481l-194.282-25.331L1912.061,947.235"/>
	</g>
	<path style="fill:#152E60;" d="M1744.989,1583.133l-5.365,18.796l-57.953,24.837c-6.904,2.959-11.38,9.747-11.38,17.258l0,0
		h119.681l-4.54-60.89H1744.989z"/>
	<g>
		<g>
			<path style="fill:#59445A;" d="M1959.545,454.764c0,0,2.635-90.172,93.97-52.824
				C2053.515,401.94,1997.077,459.789,1959.545,454.764z"/>
			<g>
				<g>
					<defs>
						
							<ellipse id="XMLID_00000077293330922299501190000015907145242657418414_" transform="matrix(0.1963 -0.9805 0.9805 0.1963 1150.9894 2356.6843)" cx="2013.183" cy="476.184" rx="69.88" ry="57.441"/>
					</defs>
					<use xlink:href="#XMLID_00000077293330922299501190000015907145242657418414_"  style="overflow:visible;fill:#F4D2C6;"/>
					<clipPath id="XMLID_00000142887839292531104870000006358179036619112623_">
						<use xlink:href="#XMLID_00000077293330922299501190000015907145242657418414_"  style="overflow:visible;"/>
					</clipPath>
					<path style="clip-path:url(#XMLID_00000142887839292531104870000006358179036619112623_);fill:#EDA19D;" d="M1959.545,454.764
						c0,0,31.917,16.842,69.575,9.139l7.856,9.555l5.451-20.962l-79.231-20.321L1959.545,454.764"/>
				</g>
				<path style="fill:#F4D2C6;" d="M2070.286,482.922c0,0-26.697,104.692-21.817,138.273c0,0-37.194,3.604-69.601-13.937
					c0,0,39.87-85.96,39.769-107.532L2070.286,482.922z"/>
			</g>
			<path style="fill:#EDA19D;" d="M2005.223,545.497c0,0,11.997,2.222,30.318-7.454c0,0-9.138,27.875-36.946,24.014
				L2005.223,545.497z"/>
			<path style="fill:#59445A;" d="M1965.878,440.424c0,0,24.631,10.363,66.757,14.554c0,0,7.707,15.733,2.605,29.524
				c-9.963,26.927,26.65,34.259,26.65,34.259s34.866-53.086,27.897-82.384c-4.732-19.894-26.411-31.267-45.784-38.172
				c-14.654-5.223-40.354-5.855-52.922,3.314C1983.456,407.081,1970.955,422.769,1965.878,440.424z"/>
			<path style="fill:#F4D2C6;" d="M2052.438,488.119c-1.365,6.819-8,11.24-14.819,9.874c-6.819-1.365-11.24-8-9.874-14.819
				c1.365-6.819,8-11.24,14.819-9.874C2049.382,474.665,2053.803,481.3,2052.438,488.119z"/>
		</g>
		<g>
			<g>
				<path style="fill:#4292F3;" d="M1978.269,403.81l96.536,95.637c0,0,53.544-44.269,4.673-92.777
					C2019.456,347.093,1978.269,403.81,1978.269,403.81z"/>
				<path style="fill:#324D90;" d="M2027.677,452.758l-57.892-3.428c-17.513-1.037-33.849-9.165-45.239-22.508l-20.557-24.082
					l74.28,1.07L2027.677,452.758z"/>
			</g>
			<path style="fill:#324D90;" d="M2079.467,409.889c-1.51,1.842-6.463,0.279-11.061-3.491c-4.598-3.77-7.101-8.32-5.59-10.162
				c1.51-1.842,6.462-0.279,11.061,3.491S2080.978,408.047,2079.467,409.889z"/>
		</g>
	</g>
	<g>
		<defs>
			<path id="XMLID_00000176753465686165448000000014590969823065557399_" d="M2117.025,707.777
				c2.805-59.127-30.352-109.14-78.783-118.838l0,0l-27.491-5.505l0,0c-48.431-9.698-98.289,23.693-118.467,79.341l-92.341,254.664
				l304.247,60.923L2117.025,707.777z"/>
		</defs>
		<use xlink:href="#XMLID_00000176753465686165448000000014590969823065557399_"  style="overflow:visible;fill:#4292F3;"/>
		<clipPath id="XMLID_00000000928396743057054270000013565601735468779681_">
			<use xlink:href="#XMLID_00000176753465686165448000000014590969823065557399_"  style="overflow:visible;"/>
		</clipPath>
		<path style="clip-path:url(#XMLID_00000000928396743057054270000013565601735468779681_);fill:#3C7ED7;" d="M2044.124,805.694
			c0,0-0.097,134.686,68.148,156.171l4.918-177.13L2044.124,805.694"/>
	</g>
	<g>
		<g>
			<g>
				<rect x="1619.135" y="466.98" style="fill:#F3AC4A;" width="225.464" height="245.777"/>
				<rect x="1844.644" y="466.98" style="fill:#F08F3C;" width="124.83" height="245.777"/>
			</g>
			<g>
				<rect x="1717.023" y="466.98" style="fill:#FDF1E6;" width="29.688" height="24.678"/>
				<rect x="1896.129" y="466.98" style="fill:#FDF1E6;" width="29.688" height="24.678"/>
			</g>
		</g>
		<g>
			<g>
				<g>
					<rect x="1666.728" y="712.757" style="fill:#F3AC4A;" width="225.464" height="245.777"/>
					<rect x="1892.237" y="712.757" style="fill:#F08F3C;" width="124.83" height="245.777"/>
				</g>
				<g>
					<rect x="1764.616" y="712.757" style="fill:#FDF1E6;" width="29.688" height="24.678"/>
					<rect x="1943.722" y="712.757" style="fill:#FDF1E6;" width="29.688" height="24.678"/>
				</g>
			</g>
			<polygon style="opacity:0.54;fill:#F08F3C;" points="1666.728,712.757 1844.644,712.757 1666.728,758.638 			"/>
		</g>
	</g>
	<polygon style="fill:#4292F3;" points="2110.748,659.009 2145.873,788.487 2035.544,807.145 2024.089,684.062 	"/>
	<g>
		<g>
			<defs>
				<path id="XMLID_00000011738736078166805800000004421392249690763169_" d="M2138.651,789.393l13.391,49.356
					c1.968,7.254,2.265,14.859,0.871,22.245l0,0c-3.275,17.337-15.492,31.639-32.104,37.582l-198.308,70.951l-26.932-34.638
					l183.322-95.362l-14.61-37.587L2138.651,789.393z"/>
			</defs>
			<use xlink:href="#XMLID_00000011738736078166805800000004421392249690763169_"  style="overflow:visible;fill:#F4D2C6;"/>
			<clipPath id="XMLID_00000029046624059424034630000009366368176364547980_">
				<use xlink:href="#XMLID_00000011738736078166805800000004421392249690763169_"  style="overflow:visible;"/>
			</clipPath>
			<path style="clip-path:url(#XMLID_00000029046624059424034630000009366368176364547980_);fill:#EDA19D;" d="M2067.761,837.975
				c0,0,42.668-13.031,78.112-39.465l-5.883-18.447l-86.377,17.702L2067.761,837.975z"/>
		</g>
		<path style="fill:#F4D2C6;" d="M1898.016,933.615c0,0-53.872-16.348-53.872-14.841c0,1.508,5.191,13.892,10.551,17.335
			c1.285,0.825,3.648,1.796,6.49,2.795c-11.892,6.723-30.181,19.629-30.181,19.629s39.636,20.081,51.086,19.827
			c11.451-0.254,40.409-8.833,40.409-8.833S1910.712,936.1,1898.016,933.615z"/>
	</g>
	<g>
		<path style="fill:#FFFFFF;" d="M2003.661,582.321l8.877,19.747c3.103,6.903,10.427,10.842,17.911,9.715
			c8.626-1.299,20.134-5.005,30.533-14.828l-11.69-7.086L2003.661,582.321z"/>
		<path style="fill:#FFFFFF;" d="M2003.661,582.321l-19.947,10.971c-4.217,2.319-9.387-1.228-8.531-5.964
			c0.217-1.199,0.572-2.463,1.113-3.766C1976.295,583.563,1989.821,579.905,2003.661,582.321z"/>
	</g>
</g>
<g>
	<g>
		<g>
			<rect x="398.783" y="1301.278" style="fill:#BEDBFA;" width="342.745" height="342.745"/>
			<rect x="542.448" y="1301.278" style="fill:#CBE3FC;" width="55.415" height="37.46"/>
		</g>
		<g>
			<rect x="354.039" y="958.534" style="fill:#BEDBFA;" width="342.745" height="342.745"/>
			<rect x="497.704" y="958.534" style="fill:#CBE3FC;" width="55.416" height="37.46"/>
		</g>
		<polygon style="opacity:0.25;fill:#3C7ED7;" points="696.784,1301.278 398.783,1363.735 398.783,1301.278 		"/>
	</g>
	<rect x="696.784" y="958.534" style="fill:#D4E8FC;" width="131.027" height="342.745"/>
	<rect x="740.255" y="1301.278" style="fill:#D4E8FC;" width="131.027" height="342.745"/>
</g>
<g>
	<polygon style="fill:#EDA19D;" points="1170.459,551.37 1218.627,534.247 1346.378,429.626 1405.057,427.054 1252.19,559.414 
		1188.819,589.702 	"/>
	<g>
		<path style="fill:#152E60;" d="M847.601,1558.336l-2.996,19.316l42.233,46.816c5.031,5.577,6.254,13.616,3.11,20.437l0,0
			l-108.689-50.102l29.613-53.398L847.601,1558.336z"/>
		<path style="fill:#152E60;" d="M1123.566,1584.015l5.365,18.796l57.953,24.837c6.904,2.959,11.38,9.747,11.38,17.258l0,0h-119.681
			l4.54-60.89H1123.566z"/>
	</g>
	<g>
		<path style="fill:#1A1949;" d="M1063.314,430.979c0,0,19.658,16.718,22.529,37.295c0.864,6.189-0.644,14.821-0.644,14.821
			l-31.119-38.317L1063.314,430.979z"/>
		<g>
			<g>
				<defs>
					
						<ellipse id="XMLID_00000119802629178988112270000001111926141365900175_" transform="matrix(0.9674 -0.2532 0.2532 0.9674 -92.6247 276.5595)" cx="1027.971" cy="498.077" rx="59.156" ry="71.966"/>
				</defs>
				<use xlink:href="#XMLID_00000119802629178988112270000001111926141365900175_"  style="overflow:visible;fill:#F4D2C6;"/>
				<clipPath id="XMLID_00000142871021524030738500000012105208023237274545_">
					<use xlink:href="#XMLID_00000119802629178988112270000001111926141365900175_"  style="overflow:visible;"/>
				</clipPath>
				<path style="clip-path:url(#XMLID_00000142871021524030738500000012105208023237274545_);fill:#EDA19D;" d="M1079.226,460.278
					c0,0-59.048,37.507-89.195,12.463c-30.147-25.044,0,0,0,0l69.69-36.393L1079.226,460.278z"/>
			</g>
			<path style="fill:#F4D2C6;" d="M969.669,508.436c0,0,33.741,106.029,30.742,140.847c0,0,38.456,1.47,70.719-18.513
				c0,0-46.158-85.979-47.35-108.163L969.669,508.436z"/>
		</g>
		<path style="fill:#EDA19D;" d="M1040.322,568.858c0,0-12.2,3.006-31.618-5.841c0,0,11.07,28.109,39.428,22.468L1040.322,568.858z"
			/>
		<path style="fill:#59445A;" d="M1063.262,444.745c0,0-38.994,24.71-64.773,27.414c-25.779,2.705-35.414-4.206-35.414-4.206
			s-20.204-22.429-6.15-36.342c14.053-13.913,97.738-43.817,97.738-43.817S1074.999,427.49,1063.262,444.745z"/>
		<path style="fill:#59445A;" d="M983.601,456.275c0,0,16.483,33.058,14.582,46.095c-1.901,13.037-16.181,47.961-16.181,47.961
			s-37.688-37.521-41.114-53.814c-3.427-16.293,12.978-42.809,12.978-42.809L983.601,456.275z"/>
		<path style="fill:#F4D2C6;" d="M970.672,517.905c2.109,8.059,10.352,12.881,18.411,10.772c8.059-2.11,12.881-10.352,10.772-18.411
			c-2.109-8.059-10.352-12.881-18.411-10.772C973.385,501.603,968.562,509.846,970.672,517.905z"/>
	</g>
	<g>
		<g>
			
				<rect x="1330.326" y="180.099" transform="matrix(0.9993 -0.0379 0.0379 0.9993 -10.435 54.8426)" style="fill:#F3AC4A;" width="225.464" height="245.777"/>
			
				<rect x="1555.709" y="173.467" transform="matrix(0.9993 -0.0379 0.0379 0.9993 -10.0585 61.4646)" style="fill:#F08F3C;" width="124.83" height="245.777"/>
		</g>
		<g>
			
				<rect x="1424.029" y="180.178" transform="matrix(0.9993 -0.0379 0.0379 0.9993 -6.2562 54.6047)" style="fill:#FDF1E6;" width="29.688" height="24.678"/>
			
				<rect x="1603.007" y="173.398" transform="matrix(0.9993 -0.0379 0.0379 0.9993 -5.8709 61.3693)" style="fill:#FDF1E6;" width="29.688" height="24.678"/>
		</g>
	</g>
	<g>
		<g>
			<defs>
				<polygon id="XMLID_00000065033927936959380250000013697838164591898781_" points="1176.181,564.1 1222.715,544.122 
					1430.496,409.456 1449.873,445.008 1276.423,605.235 1211.428,637.69 				"/>
			</defs>
			<use xlink:href="#XMLID_00000065033927936959380250000013697838164591898781_"  style="overflow:visible;fill:#F4D2C6;"/>
			<clipPath id="XMLID_00000075126074566376387290000012942121672531429049_">
				<use xlink:href="#XMLID_00000065033927936959380250000013697838164591898781_"  style="overflow:visible;"/>
			</clipPath>
			<polygon style="clip-path:url(#XMLID_00000075126074566376387290000012942121672531429049_);fill:#EDA19D;" points="
				1182.533,552.589 1273.665,612.839 1199.654,650.031 1165.81,565.234 			"/>
		</g>
		<path style="fill:#F4D2C6;" d="M1430.496,409.456c0,0,37.563-46.531,47.353-39.856c4.488,3.06-13.796,26.257-9.791,28.928
			c4.005,2.67,69.077-21.844,69.365-14.239c0.288,7.605-7.95,36.046-14.625,42.721c-6.676,6.676-72.925,17.997-72.925,17.997
			L1430.496,409.456z"/>
	</g>
	<path style="fill:#2A437D;" d="M938.028,901.219l-43.277,374.394l-98.774,276.447l55.244,22.521l150.935-231.261
		c11.188-15.737,19.938-33.071,25.956-51.417l78.164-238.295L938.028,901.219z"/>
	<path style="fill:#324D90;" d="M1156.928,1054.971l-15.708-305.716H958.392l-17.779,128.611
		c-8.642,62.519-1.448,126.435,22.486,184.834c0.939,2.29,1.899,4.572,2.882,6.846l53.092,122.859l15.465,61.383l40.401,330.226
		h54.783l39.997-349.046L1156.928,1054.971L1156.928,1054.971z"/>
	<path style="fill:#4292F3;" d="M958.392,749.255l4.666-64.31c3.198-44.084,38.484-79.826,82.644-81.673
		c1.151-0.048,2.305-0.075,3.464-0.08h0c4.241-0.017,8.44,0.259,12.571,0.815c36.195,4.867,65.115,32.621,72.953,68.291l6.53,76.957
		H958.392z"/>
	<polygon style="fill:#4292F3;" points="1013.846,612.004 1167.418,545.02 1218.627,651.936 1095.945,715.078 	"/>
	<path style="fill:#324D90;" d="M979.491,753.476c0,0-23.058-117.462,39.542-144.699c0,0-75.837,8.44-60.641,140.478
		L979.491,753.476z"/>
	<polygon style="fill:#3C7ED7;" points="1136.547,694.181 1079.643,721.696 1141.22,749.255 	"/>
	<g>
		<path style="fill:#2A437D;" d="M1006.284,909.293h95.83l2.635,83.326c0.835,26.396-20.337,48.247-46.745,48.247h0
			c-24.787,0-45.269-19.339-46.692-44.085L1006.284,909.293z"/>
		<rect x="1007.44" y="927.599" style="fill:#324D90;" width="95.311" height="3.612"/>
	</g>
</g>
<g>
	<g>
		<rect x="2276.671" y="1327.322" style="fill:#F3AC4A;" width="312.927" height="234.711"/>
		<rect x="2413.212" y="1327.322" style="fill:#FDF1E6;" width="39.845" height="44.966"/>
	</g>
	<g>
		<g>
			<path style="fill:#324D90;" d="M2675.451,644.992h-76.408h-0.489c-8.155,0-14.767,6.611-14.767,14.766v1.83v895.924h-299.551
				c-10.785,0-19.528,8.743-19.528,19.528v0c0,10.785,8.743,19.528,19.528,19.528h314.806v-15.448v-23.609V661.589h76.408V644.992z"
				/>
			<path style="fill:#152E60;" d="M2744.982,670.256H2638.17c-2.446,0-4.429-1.983-4.429-4.429v-25.072
				c0-2.446,1.983-4.429,4.429-4.429h106.811c2.446,0,4.429,1.983,4.429,4.429v25.072
				C2749.411,668.273,2747.428,670.256,2744.982,670.256z"/>
		</g>
		<g>
			<circle style="fill:#152E60;" cx="2589.506" cy="1575.808" r="69.097"/>
			<circle style="fill:#324D90;" cx="2589.506" cy="1575.808" r="27.724"/>
		</g>
	</g>
</g>
<path style="fill:#152E60;" d="M139.227,1644.905c910.51-3.58,1861.689-3.611,2772.188,0
	C2000.905,1648.515,1049.726,1648.485,139.227,1644.905L139.227,1644.905z"/>
</svg>
